<svg height="437" viewBox="0 0 437 437" width="437" xmlns="http://www.w3.org/2000/svg" xmlns:xlink="http://www.w3.org/1999/xlink"><mask id="a" fill="#fff"><circle cx="218.5" cy="218.5" fill="#fff" fill-rule="evenodd" r="218.5"/></mask><g fill="none" fill-rule="evenodd"><text fill="#f7f7ff" font-family="Arial-BoldMT, Arial" font-size="63" font-weight="bold" mask="url(#a)"><tspan x="139.703857" y="384">RxJS</tspan></text><g mask="url(#a)"><g transform="translate(103 53)"><g fill="none" stroke="#f4f4ff" stroke-width="18"><path d="m116.918525 78.5921708c27.061952 0 49 23.4640912 49-3.5834575 0-27.0475486-21.938048-48.973919-49-48.973919-27.0619532 0-49.0000005 21.9263704-49.0000005 48.973919 0 27.0475487 21.9380473 3.5834575 49.0000005 3.5834575z"/><ellipse cx="116.418525" cy="166.534794" rx="69.5" ry="87.5"/><path d="m116.918525 245.839142v-162.6086956" stroke-linecap="square"/><path d="m174.588643 224.03099c16.035147-2.882062 26.558656-4.32141 31.570526-4.318043 8.9628.006034 13.885751 4.348616 13.885751 4.348616" stroke-linecap="square" transform="matrix(.92050485 .39073113 -.39073113 .92050485 102.383984 -59.458849)"/><path d="m11.9550802 224.03099c16.0351471-2.882062 26.5586557-4.32141 31.5705257-4.318043 8.9628.006034 13.8857507 4.348616 13.8857507 4.348616" stroke-linecap="square" transform="matrix(-.92050485 .39073113 .39073113 .92050485 -20.088969 4.087147)"/><path d="m186.549709 168.919702c16.034283-2.883403 26.557193-4.323601 31.568728-4.320592 8.962202.005392 13.884514 4.347911 13.884514 4.347911" stroke-linecap="square" transform="matrix(.93969262 .34202014 -.34202014 .93969262 69.660655 -61.519074)"/><path d="m-.00295122 168.919702c16.03428352-2.883403 26.55719292-4.323601 31.56872852-4.320592 8.9622018.005392 13.8845139 4.347911 13.8845139 4.347911" stroke-linecap="square" transform="matrix(-.93969262 .34202014 .34202014 .93969262 -12.962813 2.285694)"/><path d="m174.588643 113.783894c16.035147-2.882062 26.558656-4.32141 31.570526-4.318043 8.9628.006034 13.885751 4.348616 13.885751 4.348616" stroke-linecap="square" transform="matrix(.92050485 -.39073113 -.39073113 -.92050485 59.307012 291.503276)"/><path d="m9.56332763 113.783894c16.03514707-2.882062 26.55865567-4.32141 31.57052567-4.318043 8.9628001.006034 13.8857508 4.348616 13.8857508 4.348616" stroke-linecap="square" transform="matrix(-.92050485 -.39073113 .39073113 -.92050485 18.394632 227.022748)"/><path d="m49.0272296 21.6020208c10.2505499 1.2841495 17.8829807 1.9285332 22.8972922 1.933151 8.9671662.0082485 17.4596077-11.5490457 17.4596077-11.5490457" stroke-linecap="square" transform="matrix(-.76604444 -.64278761 .64278761 -.76604444 110.803981 75.850649)"/><path d="m147.130016 21.6020208c10.25055 1.2841495 17.882981 1.9285332 22.897292 1.933151 8.967167.0082485 17.459608-11.5490457 17.459608-11.5490457" stroke-linecap="square" transform="matrix(.76604444 -.64278761 -.64278761 -.76604444 50.55907 138.909904)"/></g><circle cx="85" cy="195" fill="#f4f4ff" fill-rule="evenodd" r="13"/><circle cx="150" cy="145" fill="#f4f4ff" fill-rule="evenodd" r="13"/></g></g><g stroke="#f00"><g mask="url(#a)"><path d="m16.6257316 2.62692214c70.627267 35.43223216 105.9414194 70.86342856 105.9424584 106.29358886.001558 53.145241-105.9377843 53.142133-105.9362263 106.287374.0015581 53.145241 105.9409003 53.148349 105.9424583 106.293589.001558 53.145241-105.9377841 53.142134-105.9362261 106.287374.001558 53.145241 105.9409001 53.148349 105.9424581 106.293589.001039 35.430161-35.3110363 70.859286-105.9362259 106.287375" stroke-width="10" transform="matrix(.66913059922 .74314482353 -.74314482353 .66913059922 241.21471600306 -217.98346370545)"/><path d="m44.6427047 2.62690932c71.2109553 35.43224928 106.8169513 70.86345428 106.8179903 106.29361468.001558 53.145241-106.8133162 53.142108-106.8117581 106.287348.001558 53.145241 106.8164321 53.148374 106.8179901 106.293615s-106.813316 53.142108-106.811758 106.287349c.0015581 53.14524 106.816432 53.148374 106.81799 106.293614.001039 35.430161-35.60288 70.859277-106.8117578 106.287349" stroke-width="6" transform="matrix(.66913059922 .74314482353 -.74314482353 .66913059922 242.29531799847 -219.00891702888)"/><path d="m72.6596778 2.62690932c71.2109552 35.43224928 106.8169512 70.86345428 106.8179902 106.29361468.001558 53.145241-106.8133161 53.142108-106.811758 106.287348.001558 53.145241 106.816432 53.148374 106.81799 106.293615s-106.8133159 53.142108-106.8117578 106.287349c.001558 53.14524 106.8164318 53.148374 106.8179898 106.293614.001039 35.430161-35.60288 70.859277-106.8117577 106.287349" stroke-width="10" transform="matrix(.66913059922 .74314482353 -.74314482353 .66913059922 243.35929520637 -220.01859409293)"/><path d="m129.569154 2.62692214c70.627267 35.43223216 105.94142 70.86342856 105.942459 106.29358886.001558 53.145241-105.937784 53.142133-105.936226 106.287374s105.9409 53.148349 105.942458 106.293589c.001558 53.145241-105.937784 53.142134-105.936226 106.287374.001558 53.145241 105.9409 53.148349 105.942458 106.293589.001039 35.430161-35.311036 70.859286-105.936226 106.287375" stroke-width="10" transform="matrix(.66913059922 .74314482353 -.74314482353 .66913059922 245.50387511679 -222.05372377331)"/><path d="m101.552181 2.62692214c70.627267 35.43223216 105.94142 70.86342856 105.942459 106.29358886.001558 53.145241-105.937785 53.142133-105.936226 106.287374.001558 53.145241 105.9409 53.148349 105.942458 106.293589.001558 53.145241-105.937784 53.142134-105.936226 106.287374.001558 53.145241 105.9409 53.148349 105.942458 106.293589.001039 35.430161-35.311037 70.859286-105.936226 106.287375" stroke-width="6" transform="matrix(.66913059922 .74314482353 -.74314482353 .66913059922 244.43989790889 -221.04404670925)"/><path d="m157.586128 2.62692214c70.627267 35.43223216 105.941419 70.86342856 105.942458 106.29358886.001558 53.145241-105.937784 53.142133-105.936226 106.287374s105.9409 53.148349 105.942458 106.293589c.001558 53.145241-105.937784 53.142134-105.936226 106.287374.001558 53.145241 105.9409 53.148349 105.942459 106.293589.001038 35.430161-35.311037 70.859286-105.936227 106.287375" stroke-width="6" transform="matrix(.66913059922 .74314482353 -.74314482353 .66913059922 246.56785303181 -223.06340013025)"/><path d="m185.603101 2.62690932c71.210955 35.43224928 106.816951 70.86345428 106.81799 106.29361468.001558 53.145241-106.813316 53.142108-106.811758 106.287348.001558 53.145241 106.816432 53.148374 106.81799 106.293615s-106.813316 53.142108-106.811758 106.287349c.001558 53.14524 106.816432 53.148374 106.81799 106.293614.001039 35.430161-35.60288 70.859277-106.811758 106.287349" stroke-width="10" transform="matrix(.66913059922 .74314482353 -.74314482353 .66913059922 247.64845432011 -224.08885416078)"/><path d="m214.495604 2.62692214c70.627267 35.43223216 105.94142 70.86342856 105.942459 106.29358886.001558 53.145241-105.937785 53.142133-105.936227 106.287374s105.940901 53.148349 105.942459 106.293589c.001558 53.145241-105.937784 53.142134-105.936226 106.287374.001558 53.145241 105.9409 53.148349 105.942458 106.293589.001039 35.430161-35.311037 70.859286-105.936226 106.287375" stroke-width="6" transform="matrix(.66913059922 .74314482353 -.74314482353 .66913059922 248.72905702263 -225.1143067771)"/><path d="m242.512577 2.62692214c70.627267 35.43223216 105.94142 70.86342856 105.942459 106.29358886.001558 53.145241-105.937784 53.142133-105.936226 106.287374s105.9409 53.148349 105.942458 106.293589c.001558 53.145241-105.937784 53.142134-105.936226 106.287374.001558 53.145241 105.9409 53.148349 105.942458 106.293589.001039 35.430161-35.311036 70.859286-105.936226 106.287375" stroke-width="10" transform="matrix(.66913059922 .74314482353 -.74314482353 .66913059922 249.79303423053 -226.12398384116)"/><path d="m298.546524 2.62692214c70.627267 35.43223216 105.94142 70.86342856 105.942458 106.29358886.001558 53.145241-105.937784 53.142133-105.936226 106.287374s105.9409 53.148349 105.942458 106.293589c.001558 53.145241-105.937784 53.142134-105.936226 106.287374.001558 53.145241 105.940901 53.148349 105.942459 106.293589.001038 35.430161-35.311037 70.859286-105.936227 106.287375" stroke-width="10" transform="matrix(.66913059922 .74314482353 -.74314482353 .66913059922 251.92099006055 -228.14333796927)"/><path d="m270.529551 2.62692214c70.627267 35.43223216 105.941419 70.86342856 105.942458 106.29358886.001558 53.145241-105.937784 53.142133-105.936226 106.287374s105.9409 53.148349 105.942458 106.293589c.001558 53.145241-105.937784 53.142134-105.936226 106.287374.001558 53.145241 105.9409 53.148349 105.942458 106.293589.001039 35.430161-35.311036 70.859286-105.936226 106.287375" stroke-width="6" transform="matrix(.66913059922 .74314482353 -.74314482353 .66913059922 250.85701214554 -227.13366019811)"/><path d="m326.563497 2.62690932c71.210955 35.43224928 106.816951 70.86345428 106.81799 106.29361468.001558 53.145241-106.813316 53.142108-106.811758 106.287348.001558 53.145241 106.816432 53.148374 106.81799 106.293615s-106.813316 53.142108-106.811758 106.287349c.001558 53.14524 106.816432 53.148374 106.81799 106.293614.001039 35.430161-35.60288 70.859277-106.811758 106.287349" stroke-width="6" transform="matrix(.66913059922 .74314482353 -.74314482353 .66913059922 253.00159134886 -229.1687919998)"/><path d="m355.456 2.62692214c70.627267 35.43223216 105.94142 70.86342856 105.942459 106.29358886.001558 53.145241-105.937785 53.142133-105.936227 106.287374.001559 53.145241 105.940901 53.148349 105.942459 106.293589.001558 53.145241-105.937784 53.142134-105.936226 106.287374.001558 53.145241 105.9409 53.148349 105.942458 106.293589.001039 35.430161-35.311037 70.859286-105.936226 106.287375" stroke-width="10" transform="matrix(.66913059922 .74314482353 -.74314482353 .66913059922 254.08219334427 -230.19424390901)"/><path d="m383.472973 2.62692214c70.627267 35.43223216 105.94142 70.86342856 105.942459 106.29358886.001558 53.145241-105.937784 53.142133-105.936226 106.287374s105.9409 53.148349 105.942458 106.293589c.001558 53.145241-105.937784 53.142134-105.936226 106.287374.001558 53.145241 105.9409 53.148349 105.942458 106.293589.001039 35.430161-35.311036 70.859286-105.936226 106.287375" stroke-width="6" transform="matrix(.66913059922 .74314482353 -.74314482353 .66913059922 255.14617196638 -231.20392097306)"/><path d="m411.489947 2.62692214c70.627267 35.43223216 105.941419 70.86342856 105.942458 106.29358886.001558 53.145241-105.937784 53.142133-105.936226 106.287374s105.9409 53.148349 105.942458 106.293589c.001558 53.145241-105.937784 53.142134-105.936226 106.287374.001558 53.145241 105.9409 53.148349 105.942458 106.293589.001039 35.430161-35.311036 70.859286-105.936226 106.287375" stroke-width="10" transform="matrix(.66913059922 .74314482353 -.74314482353 .66913059922 256.21014917429 -232.21359803712)"/><path d="m467.523893 2.62690932c71.210955 35.43224928 106.816951 70.86345428 106.81799 106.29361468.001558 53.145241-106.813316 53.142108-106.811758 106.287348.001558 53.145241 106.816432 53.148374 106.81799 106.293615s-106.813316 53.142108-106.811758 106.287349c.001558 53.14524 106.816432 53.148374 106.81799 106.293614.001039 35.430161-35.60288 70.859277-106.811758 106.287349" stroke-width="10" transform="matrix(.66913059922 .74314482353 -.74314482353 .66913059922 258.3547283776 -234.2487284246)"/><g stroke-width="6"><path d="m439.50692 2.62690932c71.210955 35.43224928 106.816951 70.86345428 106.81799 106.29361468.001558 53.145241-106.813316 53.142108-106.811758 106.287348.001558 53.145241 106.816432 53.148374 106.81799 106.293615s-106.813316 53.142108-106.811758 106.287349c.001558 53.14524 106.816432 53.148374 106.81799 106.293614.001039 35.430161-35.60288 70.859277-106.811758 106.287349" transform="matrix(.66913059922 .74314482353 -.74314482353 .66913059922 257.29075046259 -233.23905206765)"/><path d="m496.416396 2.62692214c70.627267 35.43223216 105.94142 70.86342856 105.942459 106.29358886.001558 53.145241-105.937785 53.142133-105.936226 106.287374.001558 53.145241 105.9409 53.148349 105.942458 106.293589.001558 53.145241-105.937784 53.142134-105.936226 106.287374.001558 53.145241 105.9409 53.148349 105.942458 106.293589.001039 35.430161-35.311037 70.859286-105.936226 106.287375" transform="matrix(.66913059922 .74314482353 -.74314482353 .66913059922 259.43533108012 -235.27418104091)"/></g></g><circle cx="218.5" cy="218.5" mask="url(#a)" r="218.5" stroke-width="16"/></g></g></svg>